<?xml version="1.0" encoding="UTF-8"?>
<svg id="Layer_1" xmlns="http://www.w3.org/2000/svg" viewBox="0 0 910.51 885.08">
  <defs>
    <style>
      .cls-1 {
        letter-spacing: 0em;
      }

      .cls-2, .cls-3 {
        fill: #fff;
      }

      .cls-3 {
        font-family: Montserrat-Bold, Montserrat;
        font-size: 109.32px;
        font-weight: 700;
      }

      .cls-4 {
        letter-spacing: 0em;
      }
    </style>
  </defs>
  <g>
    <path class="cls-2" d="M525.56,194.39c-1.81-8.48,3.4-20.37,7.42-27.54,12.96-23.15,38.52-30.73,61.67-41.98,23.25-11.29,60.94-25.9,62.39-55.24,1.23-24.81-13.69-48.52-25.58-69.63,1.41,9.32,2.79,18.72,2.34,28.12-.5,9.41-2.96,18.94-8.7,26.66-12.09,16.37-34.46,24.08-52.12,33.99-17.66,9.91-36.96,21.76-44.99,40.41-8.79,20.52-6.99,44.03-2.42,65.22"/>
    <polygon class="cls-2" points="534.66 176.45 534.66 217.2 711.5 420.32 522.37 637.53 335.35 422.74 515.29 216.06 515.29 175.75 300.07 422.96 522.17 678.06 746.78 420.08 534.66 176.45"/>
    <polygon class="cls-2" points="493.17 631.42 468.6 659.63 266.03 422.74 462.97 191.23 462.97 175.74 247.71 422.97 469.82 678.07 501.59 641.59 493.17 631.42"/>
    <polygon class="cls-2" points="446.81 639.49 429.27 659.6 226.74 422.74 423.64 191.23 423.64 175.77 208.4 422.96 430.52 678.06 455.27 649.66 446.81 639.49"/>
    <polygon class="cls-2" points="404.98 637.98 386.13 659.64 183.57 422.74 380.48 191.24 380.48 175.75 165.24 422.96 387.36 678.08 413.4 648.16 404.98 637.98"/>
  </g>
  <text class="cls-3" transform="translate(0 856)"><tspan x="0" y="0">DR. </tspan><tspan class="cls-1" x="230.22" y="0">D</tspan><tspan x="319.43" y="0">ANGS </tspan><tspan class="cls-4" x="676.46" y="0">L</tspan><tspan x="743.14" y="0">AB</tspan></text>
</svg>